<?xml version="1.0" standalone="no"?>
<!DOCTYPE svg PUBLIC "-//W3C//DTD SVG 20010904//EN"
 "http://www.w3.org/TR/2001/REC-SVG-20010904/DTD/svg10.dtd">
<svg version="1.0" xmlns="http://www.w3.org/2000/svg"
 width="500.000000pt" height="500.000000pt" viewBox="0 0 500.000000 500.000000"
 preserveAspectRatio="xMidYMid meet">
<metadata>
Created by potrace 1.11, written by Peter Selinger 2001-2013
</metadata>
<g transform="translate(0.000000,500.000000) scale(0.100000,-0.100000)"
fill="#000000" stroke="none">
<path d="M494 4969 c5 -25 2 -29 -15 -29 -18 0 -20 -4 -13 -32 16 -66 9 -488
-11 -610 -2 -13 -6 -48 -10 -79 -3 -31 -7 -65 -9 -75 -2 -11 -7 -44 -10 -74
-4 -30 -8 -66 -11 -80 -6 -39 -60 -409 -80 -545 -3 -22 -7 -53 -10 -70 -5 -33
-13 -90 -20 -145 -3 -19 -7 -46 -10 -60 -2 -14 -7 -47 -10 -75 -3 -27 -7 -61
-10 -75 -2 -14 -6 -41 -9 -60 -6 -43 -35 -253 -41 -295 -11 -72 -65 -486 -71
-540 -3 -33 -8 -62 -9 -65 -2 -3 -6 -39 -10 -79 -4 -41 -8 -82 -10 -90 -1 -9
-6 -50 -10 -91 -4 -41 -9 -88 -11 -105 -9 -90 -18 -260 -17 -332 4 -241 96
-327 458 -427 112 -30 1091 -274 1525 -380 80 -19 294 -71 475 -116 182 -45
395 -97 475 -116 261 -64 833 -204 940 -231 76 -19 116 -24 143 -19 59 11 123
76 168 171 46 98 73 202 95 360 15 104 5 380 -20 630 -3 28 -8 73 -10 100 -11
110 -18 181 -21 196 -2 8 -6 60 -10 115 -4 54 -9 106 -10 115 -23 119 -23 786
-1 905 2 10 7 48 11 84 12 99 12 101 24 165 17 92 20 105 26 125 3 10 7 27 9
37 12 57 48 187 70 246 13 37 22 67 19 67 -3 0 -1 6 4 13 6 6 15 28 22 47 40
118 237 503 272 530 3 3 11 14 17 25 5 11 47 69 91 129 45 59 81 110 81 113 0
3 -6 3 -14 0 -8 -3 -16 -1 -19 6 -2 8 -62 12 -203 13 -109 1 -204 2 -210 3 -8
1 -11 26 -10 76 3 84 1 90 -34 98 -14 3 -35 8 -46 10 -12 3 -66 8 -120 12 -55
4 -111 8 -125 10 -14 2 -66 6 -115 9 -49 4 -107 9 -129 11 -22 2 -74 7 -115
10 -41 4 -86 8 -100 10 -14 2 -60 7 -102 10 -43 3 -86 8 -96 10 -10 2 -56 6
-103 10 -46 4 -91 8 -99 10 -8 2 -51 6 -95 10 -110 10 -209 21 -275 30 -14 2
-52 7 -85 10 -33 4 -71 8 -85 10 -14 2 -47 6 -75 10 -27 3 -66 8 -85 10 -19 3
-60 7 -90 10 -30 3 -66 8 -80 10 -14 2 -43 7 -65 9 -22 3 -62 8 -90 11 -27 3
-61 8 -75 10 -14 2 -77 11 -140 19 -63 9 -124 18 -135 20 -11 2 -45 7 -75 10
-30 4 -120 18 -200 32 -80 14 -161 27 -180 29 -19 3 -71 11 -115 19 -44 9 -96
18 -115 21 -143 24 -614 125 -719 154 -33 10 -33 10 -27 -20z"/>
</g>
</svg>
